<svg xmlns="http://www.w3.org/2000/svg" viewBox="0 0 210.18 70"><defs><style>.cls-1{fill:#f0db4f;}.cls-2{fill:#333;}.cls-3{fill:#fff;}</style></defs><g id="Layer_2" data-name="Layer 2"><g id="Layer_1-2" data-name="Layer 1"><rect class="cls-1" width="70" height="70" rx="10.5"/><path class="cls-2" d="M32.42,41.37v22.7H26.15V41.37H17.48V35.59h23.6v5.78Z"/><path class="cls-2" d="M64.08,59.41a7.82,7.82,0,0,1-2.15,2.77,9.82,9.82,0,0,1-3.28,1.71,14.35,14.35,0,0,1-4.22.59A19,19,0,0,1,48,63.36a16.93,16.93,0,0,1-5.7-3.44l3.71-4.44a18.69,18.69,0,0,0,4,2.53,10.79,10.79,0,0,0,4.5.93,5.43,5.43,0,0,0,3-.71,2.23,2.23,0,0,0,1.08-2v-.08a2.6,2.6,0,0,0-.22-1.08,2.3,2.3,0,0,0-.86-.88,9,9,0,0,0-1.76-.81,28.32,28.32,0,0,0-2.91-.85A38.52,38.52,0,0,1,49,51.38a11.21,11.21,0,0,1-3-1.61,6.47,6.47,0,0,1-1.89-2.38,8.25,8.25,0,0,1-.68-3.54v-.08a8,8,0,0,1,2.77-6.23,9.22,9.22,0,0,1,3.14-1.75,12.79,12.79,0,0,1,4-.61A16.5,16.5,0,0,1,64,38.8l-3.26,4.72A20.21,20.21,0,0,0,57,41.47a9.59,9.59,0,0,0-3.66-.75,4.41,4.41,0,0,0-2.75.71,2.15,2.15,0,0,0-.91,1.77v.08a2.65,2.65,0,0,0,.26,1.2,2.42,2.42,0,0,0,1,.91,8.88,8.88,0,0,0,1.9.78c.8.24,1.81.53,3,.85a29.91,29.91,0,0,1,3.85,1.28A11.12,11.12,0,0,1,62.5,50a6.61,6.61,0,0,1,1.75,2.34,7.88,7.88,0,0,1,.59,3.22v.08A8.83,8.83,0,0,1,64.08,59.41Z"/><path class="cls-3" d="M79.23,60.86a4.87,4.87,0,1,1,4.87,4.87A4.85,4.85,0,0,1,79.23,60.86Z"/><path class="cls-3" d="M97.56,48c0-12.11,4.77-18.42,13.92-18.42,5.23,0,8.68,2.6,9.24,7h.66V15.73h7V65.07l-6.25.33-.69-6.64h-.69c-.43,4.37-3.88,7-9.24,7C102.33,65.73,97.56,59.65,97.56,48Zm23.82-1.51c0-7.21-2.87-11-8.36-11s-8.55,4.27-8.55,12.5c0,7.79,2.93,11.84,8.55,11.84s8.36-3.78,8.36-11Z"/><path class="cls-3" d="M138.34,47.57c0-11.38,5.73-18,15.73-18,9.41,0,14.8,5.85,14.8,16.71,0,1.64-.07,3.09-.2,4.47H145.12c1.22,5.82,5.63,8.88,12.63,8.88a42.23,42.23,0,0,0,8.56-.92l.85,6.12a53.1,53.1,0,0,1-10.2.92C145.05,65.73,138.34,59.28,138.34,47.57Zm24.22-2.17c0-6.25-3.16-9.73-8.43-9.73s-8.71,3.52-9.27,9.73Z"/><path class="cls-3" d="M176,30.21h7.43l9.38,28.94h.59l9.38-28.94h7.43L197.71,65.07h-9.27Z"/></g></g></svg>